@startuml

title Questionnaire 

left to right direction

!define newtable(x) class x << (T,LimeGreen) >> 

!define table(x) class x << (T,mistyrose) >>   
!define view(x) class x << (V,lightblue) >>   
!define table(x) class x << (T,mistyrose) >>  
!define tr(x) class x << (R,red) >>  
!define tf(x) class x << (F,darkorange) >>   
!define af(x) class x << (F,white) >>   
!define fn(x) class x << (F,plum) >>   
!define fs(x) class x << (F,tan) >>   
!define ft(x) class x << (F,wheat) >>   
!define if(x) class x << (F,gaisboro) >>   
!define p(x) class x << (P,indianred) >>   
!define pc(x) class x << (P,lemonshiffon) >>   
!define x(x) class x << (P,linen) >>     
!define primary_key(x) <<pk>> <u>x</u>
!define foreign_key(x) <<fk>> <b>x</b>
!define link( k, y) k }--||  y
hide methods   
hide stereotypes  
skinparam classarrowcolor gray  

table( QuestionnaireTemplate)
{
    primary_key(Id)
    Title
    EffectiveDate
}

table( Questionnaire)
{
    primary_key(Id)
    QuestionnaireTemplateId
}

table( QuestionnaireRow)
{
    primary_key(Id)
    QuestionnaireTemplateId
    Text
    AnswerType
    AnswerLength
    AnswerValidation
    AutoPopulate
}

table( QuestionnaireAnswer)
{
    primary_key(Id)
    QuestionnaireId
    QuestionnaireRowId
    Answer
}

QuestionnaireTemplate ||--|{ QuestionnaireRow : Template has many Questions
Questionnaire ||--|| QuestionnaireTemplate : Questionnaire has only one Template
QuestionnaireAnswer ||--|| QuestionnaireRow : Answer has only one Question
QuestionnaireAnswer }|--|| Questionnaire : Questionnaire has many Answers
 
@enduml