@startuml AddressViewModel
class AddressViewModel {
    + Id : Guid <<get>> <<set>>
    + CountryId : Guid <<get>> <<set>>
    + AddressFormId : Guid <<get>> <<set>>
    + PropertyName : string <<get>> <<set>>
    + PropertyNumber : string <<get>> <<set>>
    + Line1 : string <<get>> <<set>>
    + Line2 : string <<get>> <<set>>
    + Line3 : string <<get>> <<set>>
    + Postcode : string <<get>> <<set>>
    + City : string <<get>> <<set>>
    + County : string <<get>> <<set>>
    + Longitude : double? <<get>> <<set>>
    + Latitude : double? <<get>> <<set>>
    + UdprnKey : string <<get>> <<set>>
    + UmrrnKey : string <<get>> <<set>>
    + UprnKey : string <<get>> <<set>>
    + ShortAddress : string <<get>>
    + ShortAddressFormated : string <<get>> <<set>>
    + VisibilityLevel : VisibilityLevel <<get>> <<set>>
    + SetVisibilityLevel(visibilityLevel:VisibilityLevel) : void
}
IFormattableAddress <|-- AddressViewModel
IProtectedResourceViewModel <|-- AddressViewModel

class AddressForm {
    + CountryId : Guid <<get>> <<set>>
    + <<virtual>> Country : Country <<get>> <<set>>
    + AddressFormTypeId : Guid <<get>> <<set>>
    + <<virtual>> AddressFormType : EnumTypeItem <<get>> <<set>>
    + <<virtual>> AddressFieldDefinitions : ICollection<AddressFieldDefinition> <<get>> <<set>>
    + <<virtual>> AddressFormEntityTypes : ICollection<AddressFormEntityType> <<get>> <<set>>
}
BaseEntity <|-- AddressForm
AddressForm o-- AddressFieldDefinition
AddressForm o-- AddressFormEntityType

class AddressFieldLabel {
    + LabelKey : string <<get>> <<set>>
}
BaseEntity <|-- AddressFieldLabel

class AddressFieldDefinition {
    + AddressFieldId : Guid <<get>> <<set>>
    + <<virtual>> AddressField : AddressField <<get>> <<set>>
    + AddressFieldLabelId : Guid <<get>> <<set>>
    + <<virtual>> AddressFieldLabel : AddressFieldLabel <<get>> <<set>>
    + AddressFormId : Guid <<get>> <<set>>
    + <<virtual>> AddressForm : AddressForm <<get>> <<set>>
    + Required : bool <<get>> <<set>>
    + RegEx : string <<get>> <<set>>
    + RowOrder : short <<get>> <<set>>
    + ColumnOrder : short <<get>> <<set>>
    + ColumnSize : short <<get>> <<set>>
    + Separator : string <<get>> <<set>>
    + SpaceAfter : bool <<get>> <<set>>
}
BaseEntity <|-- AddressFieldDefinition

class AddressField {
    + Name : string <<get>> <<set>>
}
BaseEntity <|-- AddressField

class Address {
    + CountryId : Guid <<get>> <<set>>
    + <<virtual>> Country : Country <<get>> <<set>>
    + AddressFormId : Guid <<get>> <<set>>
    + <<virtual>> AddressForm : AddressForm <<get>> <<set>>
    + PropertyName : string <<get>> <<set>>
    + PropertyNumber : string <<get>> <<set>>
    + Line1 : string <<get>> <<set>>
    + Line2 : string <<get>> <<set>>
    + Line3 : string <<get>> <<set>>
    + Postcode : string <<get>> <<set>>
    + City : string <<get>> <<set>>
    + County : string <<get>> <<set>>
    + ShortAddressFormated : string <<get>> <<set>>
    + Marker : DbGeography <<get>> <<set>>
    + <<virtual>> SapUniqueNumber : SapAddressUniqueNumber <<get>> <<set>>
    + Longitude : double? <<get>>
    + Latitude : double? <<get>>
    + AlternativePropertyName : string <<get>> <<set>>
    + AlternativePropertyNumber : string <<get>> <<set>>
    + AlternativeLine1 : string <<get>> <<set>>
    + AlternativeLine2 : string <<get>> <<set>>
    + AlternativeLine3 : string <<get>> <<set>>
    + AlternativePostcode : string <<get>> <<set>>
    + AlternativeCity : string <<get>> <<set>>
    + AlternativeCounty : string <<get>> <<set>>
    + UdprnKey : string <<get>> <<set>>
    + UmrrnKey : string <<get>> <<set>>
    + UprnKey : string <<get>> <<set>>
    + QubeSynchronized : bool <<get>> <<set>>
    + QubeErrorOccurred : bool? <<get>> <<set>>
}
BaseEntity <|-- Address
IValidatableAddress <|-- Address
IFormattableAddress <|-- Address
Address o-- SapAddressUniqueNumber

class SapAddressUniqueNumber {
    + AddressId : Guid <<get>> <<set>>
    + <<virtual>> Address : Address <<get>> <<set>>
    + UniqueNumber : int <<get>> <<set>>
}

interface IValidatableAddress {
    CountryId : Guid <<get>> <<set>>
    AddressFormId : Guid <<get>> <<set>>
    PropertyName : string <<get>> <<set>>
    PropertyNumber : string <<get>> <<set>>
    Line1 : string <<get>> <<set>>
    Line2 : string <<get>> <<set>>
    Line3 : string <<get>> <<set>>
    Postcode : string <<get>> <<set>>
    City : string <<get>> <<set>>
    County : string <<get>> <<set>>
}

interface IFormattableAddress {
    CountryId : Guid <<get>>
    PropertyName : string <<get>>
    PropertyNumber : string <<get>>
    Line1 : string <<get>>
    Line2 : string <<get>>
    Line3 : string <<get>>
    Postcode : string <<get>>
    City : string <<get>>
    County : string <<get>>
}

class AddressFormEntityType {
    + AddressFormId : Guid <<get>> <<set>>
    + <<virtual>> AddressForm : AddressForm <<get>> <<set>>
    + EnumTypeItemId : Guid <<get>> <<set>>
    + <<virtual>> EnumTypeItem : EnumTypeItem <<get>> <<set>>
}
BaseEntity <|-- AddressFormEntityType

@enduml
