@startuml DbNext

left to right direction

!define table(x) class x << (T,mistyrose) >>   
!define view(x) class x << (V,lightblue) >>   
!define table(x) class x << (T,mistyrose) >>  
!define tr(x) class x << (R,red) >>  
!define tf(x) class x << (F,darkorange) >>   
!define af(x) class x << (F,white) >>   
!define fn(x) class x << (F,plum) >>   
!define fs(x) class x << (F,tan) >>   
!define ft(x) class x << (F,wheat) >>   
!define if(x) class x << (F,gaisboro) >>   
!define p(x) class x << (P,indianred) >>   
!define pc(x) class x << (P,lemonshiffon) >>   
!define x(x) class x << (P,linen) >>     
!define primary_key(x) <<pk>> <u>x</u>
!define foreign_key(x) <<fk>> <b>x</b>
!define link( k, y) k }--||  y
hide methods   
hide stereotypes  
skinparam classarrowcolor gray  

table( ConsentScript)
{
    primary_key(Id)
    Content
    CreationDate
}

table( Contact)
{
    primary_key(Id)
}

table( ContactAddress)
{
    primary_key(Id)
    ContactId
}

table( ContactCompanyAddress)
{
    primary_key(Id)
    ContactId
}

table( ContactEmail)
{
    primary_key(Id)
    ContactId
}

table( ContactConsent)
{
    primary_key(Id)
    ContactAddressId 
    ContactCompanyAddressId
    ContactEmailId
    HasReceivedFpnEmail
    DirectMarketingConsentId
    ConsentMethodId
    ConsentScriptId
}

table( OrganisationUnit)
{
    primary_key(Id)
}

table( OrganisationUnitConsent)
{
    primary_key(Id)
    OrganisationUnitId
    IsFpnEmailEnabled
    IsConsentEnabled
    IsConsentScriptAndEmailsEnabled
    IsImpliedPrivateConsentEnabled
    IsImpliedBusinessConsentEnabled
}

table( EnumTypeItem)
{
    primary_key(Id)
    Code
    EnumTypeId
    PrimarySortOrder
    SecondarySortOrder
}

OrganisationUnit <-- OrganisationUnitConsent : OrganisationUnitId
Contact <-- ContactAddress : ContactId
Contact <-- ContactCompanyAddress : ContactId
Contact <-- ContactEmail : ContactId

ContactAddress <-- ContactConsent : ContactAddressId
ContactCompanyAddress <-- ContactConsent : ContactCompanyAddressId
ContactEmail <-- ContactConsent : ContactEmailId

OrganisationUnitConsent <-- ContactConsent
ContactConsent --> ConsentScript : ConsentScriptId
EnumTypeItem <-- ContactConsent : ConsentMethodId
EnumTypeItem <-- ContactConsent : DirectMarketingConsentId

@enduml